:version 1.10
:name ASF
:units
  mass 1
  length 1
  angle deg
:documentation
  ASF file generated by Kaydara
:root
  axis xyz
  order  tx ty tz rx ry rz
  position 0 0 0
  orientation 0 0 0
:bonedata
  begin
    id 1
    name RightUpLegDummy
    direction -0.718183 -0.695806 0.00816078
    length 4.904
    axis 0 0 0 xyz
  end
  begin
    id 2
    name RightUpLeg
    direction 3.53373e-006 -0.995788 0.0916898
    length 17.4976
    axis -3.49089 -0.000906625 0.000286804 xyz
    dof rx ry rz
  end
  begin
    id 3
    name RightLeg
    direction 0.00371092 -0.995096 -0.0988419
    length 16.5821
    axis 3.68512 0.0193738 -0.131023 xyz
    dof rx ry rz
  end
  begin
    id 4
    name RightFoot
    direction 0.00079151 -0.46099 0.887405
    length 3.77069
    axis 4.81691e-005 -0.120479 -0.188788 xyz
    dof rx ry rz
  end
  begin
    id 5
    name RightToes
    direction 0.00124746 -0.014064 0.9999
    length 3.85082
    axis 0.000481921 0.542163 -0.142578 xyz
    dof rx ry rz
  end
  begin
    id 6
    name SpineDummy
    direction 8.3039e-015 1 4.57515e-016
    length 4.6813
    axis 0 0 0 xyz
  end
  begin
    id 7
    name Spine
    direction -3.15643e-008 0.999988 0.00495137
    length 10.1015
    axis -0.001389 0.000121418 2.40972e-006 xyz
    dof rx ry rz
  end
  begin
    id 8
    name Spine1
    direction 0 0 0
    length 0
    axis -0.001389 0.000121451 1.30017e-006 xyz
    dof rx ry rz
  end
  begin
    id 9
    name HEadDummy
    direction -1.99912e-008 0.999999 0.00127422
    length 3.43865
    axis -0.001389 0.000121451 1.30017e-006 xyz
  end
  begin
    id 10
    name HEad
    direction -0.0222688 0.980941 0.193023
    length 5.12695
    axis -0.001389 0.000121451 1.30017e-006 xyz
    dof rx ry rz
  end
  begin
    id 11
    name LeftShoulder1Dummy
    direction 0.998891 -0.0402509 -0.0244456
    length 3.5433
    axis -0.001389 0.000121451 1.30017e-006 xyz
  end
  begin
    id 12
    name LeftShoulder1
    direction 0.99951 -0.000327763 0.0313091
    length 4.05031
    axis -0.001389 0.000121451 1.30017e-006 xyz
    dof rx ry rz
  end
  begin
    id 13
    name LeftArm
    direction 0.998561 -0.00100056 -0.0536182
    length 10.3537
    axis -23.1894 0.134784 0.967509 xyz
    dof rx ry rz
  end
  begin
    id 14
    name LeftForeArm
    direction 0.998903 0.00866432 0.046012
    length 8.70632
    axis -9.91835 -0.06569 -0.177794 xyz
    dof rx ry rz
  end
  begin
    id 15
    name LeftHand
    direction 0.992938 -0.0411637 0.11126
    length 5.32135
    axis -0.00960232 -0.00340091 0.185173 xyz
    dof rx ry rz
  end
  begin
    id 16
    name RightShoulderDummy
    direction -0.998891 -0.0402509 -0.0244414
    length 3.5433
    axis -0.001389 0.000121451 1.30017e-006 xyz
  end
  begin
    id 17
    name RightShoulder
    direction -0.99951 -0.000327807 0.0313133
    length 4.05031
    axis 0.215806 0.000203643 -0.0068026 xyz
    dof rx ry rz
  end
  begin
    id 18
    name RightArm
    direction -0.998573 -0.000999564 -0.053403
    length 10.3947
    axis -23.2009 -0.134239 -0.964101 xyz
    dof rx ry rz
  end
  begin
    id 19
    name RightForeArm
    direction -0.998898 0.00868028 0.0461306
    length 8.68355
    axis -9.92322 0.0658061 0.178868 xyz
    dof rx ry rz
  end
  begin
    id 20
    name RightHand
    direction -0.992843 -0.0414603 0.112003
    length 5.28593
    axis -0.00960638 0.00330671 -0.185228 xyz
    dof rx ry rz
  end
  begin
    id 21
    name LeftUpLegDummy
    direction 0.718183 -0.695806 0.00816078
    length 4.904
    axis 0 0 0 xyz
  end
  begin
    id 22
    name LeftUpLeg
    direction -6.81752e-006 -0.995793 0.0916337
    length 17.4976
    axis -3.48766 0.00143442 -0.000524262 xyz
    dof rx ry rz
  end
  begin
    id 23
    name LeftLeg
    direction -0.00601358 -0.995091 -0.0987824
    length 16.5821
    axis 3.68178 -0.00654042 -0.000285133 xyz
    dof rx ry rz
  end
  begin
    id 24
    name LeftFoot
    direction -0.00417578 -0.460984 0.887399
    length 3.77069
    axis 1.87233e-006 4.66016e-005 -8.6538e-006 xyz
    dof rx ry rz
  end
  begin
    id 25
    name LeftToes
    direction 0.00818058 -0.00485161 0.999955
    length 3.85048
    axis 1.06247e-005 4.65869e-005 -8.65513e-006 xyz
    dof rx ry rz
  end
:hierarchy
  begin
    root RightUpLegDummy SpineDummy LeftUpLegDummy
    RightUpLegDummy RightUpLeg
    RightUpLeg RightLeg
    RightLeg RightFoot
    RightFoot RightToes
    SpineDummy Spine
    Spine Spine1
    Spine1 HEadDummy LeftShoulder1Dummy RightShoulderDummy
    HEadDummy HEad
    LeftShoulder1Dummy LeftShoulder1
    LeftShoulder1 LeftArm
    LeftArm LeftForeArm
    LeftForeArm LeftHand
    RightShoulderDummy RightShoulder
    RightShoulder RightArm
    RightArm RightForeArm
    RightForeArm RightHand
    LeftUpLegDummy LeftUpLeg
    LeftUpLeg LeftLeg
    LeftLeg LeftFoot
    LeftFoot LeftToes
  end

:SAMPLES-PER-SECOND 30
:FRAME-RANGE 1-744
:FULLY-SPECIFIED
:DEGREES
1
root  -62.8034 40.2 -90.742 169.213 55.1048 -179.829
RightUpLeg  15.7389 -0.583538 3.21678
RightLeg  -2.53091 7.36872 -3.99515
RightFoot  -3.76596 -0.116654 1.53851
RightToes  5.82063e-011 0 -3.6325e-017
Spine  7.86287 0.986229 3.39598
Spine1  1.04002 2.37728 -6.10736
HEad  -3.12215 -22.0106 -3.26591
LeftShoulder1  2.90113 -3.34008 -36.3192
LeftArm  17.164 17.6378 -19.5856
LeftForeArm  -0.419138 -3.05776 -18.4274
LeftHand  -1.16063 -4.67225 13.6338
RightShoulder  1.87869 -1.11007 67.3296
RightArm  23.4407 -0.195863 -6.57921
RightForeArm  18.601 2.53213 16.0563
RightHand  1.58633 20.2945 6.5998
LeftUpLeg  16.3125 6.83143 4.51941
LeftLeg  -3.16403 3.17223 0.893861
LeftFoot  -3.14599 -0.101884 1.68726
LeftToes  1.25507e-010 -3.78807e-010 5.71421e-011
2
root  -62.7468 40.19 -90.6181 169.241 55.8119 -179.788
RightUpLeg  15.5299 -0.458483 3.49561
RightLeg  -2.27057 7.95357 -4.01613
RightFoot  -3.83245 -0.0940828 1.18828
RightToes  5.82063e-011 0 -3.6325e-017
Spine  7.98085 0.940236 3.45995
Spine1  1.05156 2.33219 -5.99967
HEad  -2.66449 -21.3912 -3.61181
LeftShoulder1  2.88924 -3.29522 -36.4207
LeftArm  16.265 18.7357 -19.3403
LeftForeArm  0.243773 -1.88548 -18.6672
LeftHand  -1.17365 -4.43605 14.0985
RightShoulder  1.99372 -0.98132 67.6873
RightArm  24.2559 -0.201197 -6.32007
RightForeArm  17.7138 3.28506 15.9106
RightHand  1.69893 20.0772 7.16899
LeftUpLeg  16.0917 6.83545 4.71802
LeftLeg  -2.58036 3.78947 0.99552
LeftFoot  -3.35143 -0.0749686 1.36307
LeftToes  1.25507e-010 -3.78807e-010 5.71421e-011
3
root  -62.6956 40.1722 -90.4714 169.222 56.3594 -179.769
RightUpLeg  15.4077 -0.337309 3.81162
RightLeg  -2.14299 8.24737 -4.03925
RightFoot  -3.8077 -0.0898825 1.1231
RightToes  5.82063e-011 0 -3.6325e-017
Spine  8.1517 0.88259 3.47136
Spine1  1.14386 2.26476 -5.79079
HEad  -2.74163 -21.0607 -3.81131
LeftShoulder1  2.88741 -3.27318 -36.5284
LeftArm  16.2119 19.3955 -19.5017
LeftForeArm  0.087187 -1.32386 -18.8199
LeftHand  -1.11724 -4.38515 13.507
RightShoulder  2.26036 -0.670266 68.1324
RightArm  23.592 0.0918899 -6.13679
RightForeArm  17.4344 3.37838 15.8423
RightHand  1.73373 20.5443 7.18031
LeftUpLeg  15.6329 6.82771 4.93292
LeftLeg  -1.55752 4.24473 1.14167
LeftFoot  -3.64354 -0.0508173 1.08205
LeftToes  1.25507e-010 -3.78807e-010 5.71421e-011
4
root  -62.6679 40.1486 -90.3058 169.361 56.803 -179.657
RightUpLeg  15.0497 -0.183049 4.17761
RightLeg  -1.78947 8.48049 -4.00374
RightFoot  -3.86494 -0.0771902 0.926135
RightToes  5.82063e-011 0 -3.6325e-017
Spine  8.42163 0.81651 3.6346
Spine1  1.11011 2.20726 -5.61056
HEad  -2.7669 -20.9546 -4.08949
LeftShoulder1  2.89094 -3.25918 -36.6644
LeftArm  16.2312 19.6272 -20.0033
LeftForeArm  0.0625133 -1.15601 -18.8658
LeftHand  -1.11102 -4.28295 13.5696
RightShoulder  2.66913 -0.188065 68.5585
RightArm  23.4833 0.424381 -5.98119
RightForeArm  16.5708 3.84475 15.7066
RightHand  1.61192 20.3872 6.6872
LeftUpLeg  14.8214 6.84953 5.2208
LeftLeg  -0.120916 4.6044 1.29967
LeftFoot  -4.14645 -0.0146605 0.63074
LeftToes  1.25507e-010 -3.78807e-010 5.71421e-011
5
root  -62.6652 40.1213 -90.1235 169.626 57.0469 -179.439
RightUpLeg  14.5663 -0.113674 4.53436
RightLeg  -1.33242 8.66569 -3.86061
RightFoot  -3.94488 -0.0461225 0.443947
RightToes  5.82063e-011 0 -3.6325e-017
Spine  8.87366 0.741959 4.02748
Spine1  0.923501 2.19428 -5.51445
HEad  -2.75177 -21.0103 -4.22341
LeftShoulder1  2.9023 -3.28387 -36.6762
LeftArm  16.0386 19.3418 -20.8861
LeftForeArm  0.38954 -1.25317 -18.8175
LeftHand  -1.12686 -4.2653 13.7815
RightShoulder  3.10599 0.332422 68.8201
RightArm  23.6605 0.832985 -5.6859
RightForeArm  16.0379 4.46123 15.5051
RightHand  1.48018 20.1863 6.15502
LeftUpLeg  13.7256 6.88987 5.6006
LeftLeg  1.63913 4.69557 1.43847
LeftFoot  -4.60328 0.00601013 0.331123
LeftToes  1.25507e-010 -3.78807e-010 5.71421e-011
6
root  -62.6924 40.0895 -89.9224 169.884 57.0308 -179.348
RightUpLeg  13.9026 -0.197818 4.70978
RightLeg  -0.828002 8.75629 -3.57866
RightFoot  -4.01159 -0.0249874 0.115847
RightToes  5.82063e-011 0 -3.6325e-017
Spine  9.44545 0.712962 4.37425
Spine1  0.599108 2.21381 -5.36178
HEad  -2.83433 -21.3865 -4.30181
LeftShoulder1  2.92216 -3.31402 -36.7757
LeftArm  14.318 18.281 -21.9717
LeftForeArm  1.70665 -0.939169 -18.6987
LeftHand  -1.09731 -4.35168 13.3166
RightShoulder  3.60796 0.939475 68.9326
RightArm  24.2929 1.25475 -5.41657
RightForeArm  15.3568 5.30445 15.2478
RightHand  1.37213 20.0161 5.71326
LeftUpLeg  12.3309 6.90491 5.88933
LeftLeg  3.56871 4.62139 1.55183
LeftFoot  -5.06954 0.0396951 -0.213098
LeftToes  1.25507e-010 -3.78807e-010 5.71421e-011
7
root  -62.7471 40.0783 -89.7135 170.034 56.8654 -179.518
RightUpLeg  13.1651 -0.28182 4.71084
RightLeg  -0.497519 8.77668 -3.34055
RightFoot  -3.95359 -0.0105696 -0.108012
RightToes  5.82063e-011 0 -3.6325e-017
Spine  9.91398 0.715441 4.80142
Spine1  0.431508 2.32117 -5.54903
HEad  -3.39265 -21.9792 -3.93469
LeftShoulder1  2.94054 -3.36914 -36.7023
LeftArm  12.4883 16.5598 -23.3609
LeftForeArm  3.57236 -0.743629 -18.5108
LeftHand  -1.11618 -4.54131 13.292
RightShoulder  4.23023 1.6929 69.0303
RightArm  23.7804 2.04373 -5.05952
RightForeArm  15.6144 5.32541 15.1799
RightHand  1.32121 20.262 5.42387
LeftUpLeg  10.8593 6.85584 5.99569
LeftLeg  5.22075 4.54905 1.56944
LeftFoot  -5.04792 0.0600707 -0.570631
LeftToes  1.25507e-010 -3.78807e-010 5.71421e-011
8
root  -62.8276 40.1042 -89.4893 169.969 56.5776 179.896
RightUpLeg  12.4715 -0.353389 4.49558
RightLeg  -0.652627 8.65574 -3.23761
RightFoot  -3.56824 -9.34311e-005 -0.270694
RightToes  5.82063e-011 0 -3.6325e-017
Spine  10.4621 0.77567 5.05763
Spine1  0.124532 2.47006 -5.86918
HEad  -4.03712 -22.963 -3.56902
LeftShoulder1  2.96499 -3.43496 -36.6511
LeftArm  11.0405 14.4012 -24.9016
LeftForeArm  4.79256 -0.999309 -18.2703
LeftHand  -1.17799 -4.73789 13.7459
RightShoulder  5.01583 2.64604 69.1071
RightArm  23.3885 2.77856 -4.80869
RightForeArm  15.578 5.30029 15.1642
RightHand  1.26543 20.1174 5.20768
LeftUpLeg  9.3835 6.68582 5.81403
LeftLeg  6.40781 4.41854 1.54778
LeftFoot  -4.46162 0.104781 -1.30434
LeftToes  1.25507e-010 -3.78807e-010 5.71421e-011
9
root  -62.907 40.1554 -89.265 169.748 56.1475 179.012
RightUpLeg  11.8904 -0.391058 4.14234
RightLeg  -1.22021 8.37235 -3.28755
RightFoot  -2.99614 0.00377004 -0.330694
RightToes  5.82063e-011 0 -3.6325e-017
Spine  10.9305 0.8733 5.08111
Spine1  -0.212917 2.6099 -6.17797
HEad  -4.32354 -23.7472 -3.33087
LeftShoulder1  3.00034 -3.53659 -36.5408
LeftArm  9.75539 12.0594 -26.6436
LeftForeArm  5.62254 -1.45666 -18.0032
LeftHand  -1.12004 -4.72083 13.1106
RightShoulder  5.86837 3.6938 69.0681
RightArm  22.3047 3.63165 -4.54232
RightForeArm  16.0609 4.79135 15.2591
RightHand  1.21241 20.0801 4.97743
LeftUpLeg  7.95296 6.6484 5.45042
LeftLeg  7.25575 4.17814 1.39417
LeftFoot  -3.67559 0.12057 -1.5643
LeftToes  1.25507e-010 -3.78807e-010 5.71421e-011
10
root  -62.9847 40.1877 -89.0742 169.612 55.7694 178.212
RightUpLeg  11.2142 -0.423403 3.7929
RightLeg  -1.52914 8.2504 -3.35229
RightFoot  -2.75393 -0.0141214 -0.0613174
RightToes  5.82063e-011 0 -3.6325e-017
Spine  11.2455 0.992398 5.20467
Spine1  -0.535929 2.76566 -6.38694
HEad  -4.02462 -24.4912 -3.79914
LeftShoulder1  3.04452 -3.65781 -36.4406
LeftArm  9.27932 9.82504 -28.5125
LeftForeArm  6.7917 -2.42179 -17.6347
LeftHand  -1.20912 -5.07106 13.6689
RightShoulder  6.7861 4.8558 68.8123
RightArm  21.2424 4.48256 -4.32672
RightForeArm  16.4746 4.09499 15.4196
RightHand  1.23275 20.0169 5.08348
LeftUpLeg  6.86159 6.88703 5.12411
LeftLeg  7.63382 3.92803 1.0392
LeftFoot  -3.37063 0.0422306 -0.314687
LeftToes  1.25507e-010 -3.78807e-010 5.71421e-011
11
root  -63.0594 40.2149 -88.9268 169.306 55.5667 177.478
RightUpLeg  10.9102 -0.564347 3.31218
RightLeg  -1.98874 8.24547 -3.32575
RightFoot  -2.85236 -0.101286 1.10274
RightToes  5.82063e-011 0 -3.6325e-017
Spine  11.5004 1.10552 5.37868
Spine1  -0.65218 2.92004 -6.69812
HEad  -3.82841 -24.981 -4.56158
LeftShoulder1  3.08511 -3.75365 -36.4394
LeftArm  9.10411 7.67055 -30.3434
LeftForeArm  7.68256 -3.60683 -17.1941
LeftHand  -1.25145 -5.25666 13.8971
RightShoulder  7.71277 6.08561 68.2893
RightArm  19.9543 5.40806 -3.92772
RightForeArm  16.9843 3.28184 15.5687
RightHand  1.27585 19.9089 5.30378
LeftUpLeg  6.44262 7.07542 4.77134
LeftLeg  7.80879 4.24019 0.871566
LeftFoot  -5.09709 0.0305907 0.00175705
LeftToes  1.25507e-010 -3.78807e-010 5.71421e-011
12
root  -63.1231 40.2216 -88.8221 168.788 55.4494 176.694
RightUpLeg  10.8803 -0.409303 2.83513
RightLeg  -2.26438 8.10438 -3.60618
RightFoot  -4.5921 -0.295193 4.47261
RightToes  5.82063e-011 0 -3.6325e-017
Spine  11.7035 1.21644 5.40586
Spine1  -0.645419 3.03009 -6.92893
HEad  -3.28189 -25.2698 -5.66197
LeftShoulder1  3.11241 -3.79833 -36.5504
LeftArm  10.2389 5.61064 -32.0481
LeftForeArm  7.74426 -5.20685 -16.689
LeftHand  -1.40578 -5.38022 15.3838
RightShoulder  8.52747 7.17496 67.8872
RightArm  18.7846 6.56603 -3.77279
RightForeArm  17.676 2.58986 15.6859
RightHand  1.29457 20.016 5.36297
LeftUpLeg  6.60186 7.09104 4.21232
LeftLeg  7.73402 5.50355 0.97061
LeftFoot  -6.78261 0.0186741 0.55614
LeftToes  1.25507e-010 -3.78807e-010 5.71421e-011
